<svg xmlns="http://www.w3.org/2000/svg" viewBox="0 0 64 64" role="img" aria-label="Amit Rambaran">
  <defs>
    <linearGradient id="bg" x1="10" y1="8" x2="56" y2="58" gradientUnits="userSpaceOnUse">
      <stop offset="0" stop-color="#a9bb9e"/>
      <stop offset="0.55" stop-color="#6f8666"/>
      <stop offset="1" stop-color="#53684e"/>
    </linearGradient>
    <linearGradient id="mark" x1="18" y1="14" x2="46" y2="50" gradientUnits="userSpaceOnUse">
      <stop offset="0" stop-color="#fffdf8"/>
      <stop offset="1" stop-color="#eef4ea"/>
    </linearGradient>
    <filter id="shadow" x="-20%" y="-20%" width="140%" height="140%">
      <feDropShadow dx="0" dy="4" stdDeviation="4" flood-color="#1f2f28" flood-opacity="0.22"/>
    </filter>
  </defs>
  <rect width="64" height="64" rx="18" fill="#f5f8f2"/>
  <rect x="6" y="6" width="52" height="52" rx="16" fill="url(#bg)" filter="url(#shadow)"/>
  <path
    fill="url(#mark)"
    d="M19.7 46.4 29.4 17.6h5.2l9.7 28.8h-5.5l-2-6.4H27.1l-2 6.4h-5.4Zm8.8-10.9h7l-3.5-11.3-3.5 11.3Z"
  />
  <path
    fill="#dfe9d8"
    d="M44.2 18.5c4.8.6 8.1 3.3 9.4 7.4-4.3.9-8.5-.7-10.7-4.1-.7 2.6-.1 5.3 1.7 7.8-4.4-2-6-6.6-3.8-10.9 1-.2 2.1-.3 3.4-.2Z"
  />
</svg>
